<svg width="35" height="42" viewBox="0 0 35 42" fill="none" xmlns="http://www.w3.org/2000/svg">
<mask id="path-1-outside-1_1429_13780" maskUnits="userSpaceOnUse" x="-1.47338" y="-1.21924" width="37.575" height="43.7745" fill="black">
<rect fill="white" x="-1.47338" y="-1.21924" width="37.575" height="43.7745"/>
<path d="M0.404778 33.354L11.7701 0.346827L34.7849 8.27145L32.554 14.7504L17.517 9.57276L15.1862 16.3418L29.0467 21.1144L26.8102 27.6094L12.9498 22.8369L10.6135 29.6221L25.6504 34.7997L23.4196 41.2787L0.404778 33.354Z"/>
</mask>
<path d="M0.404778 33.354L-0.540741 33.0285L-0.866309 33.974L0.0792094 34.2995L0.404778 33.354ZM11.7701 0.346827L12.0956 -0.598691L11.1501 -0.92426L10.8246 0.0212592L11.7701 0.346827ZM34.7849 8.27145L35.7304 8.59702L36.0559 7.6515L35.1104 7.32594L34.7849 8.27145ZM32.554 14.7504L32.2284 15.6959L33.1739 16.0215L33.4995 15.076L32.554 14.7504ZM17.517 9.57276L17.8426 8.62724L16.8971 8.30167L16.5715 9.24719L17.517 9.57276ZM15.1862 16.3418L14.2407 16.0162L13.9151 16.9618L14.8607 17.2873L15.1862 16.3418ZM29.0467 21.1144L29.9922 21.4399L30.3178 20.4944L29.3722 20.1688L29.0467 21.1144ZM26.8102 27.6094L26.4847 28.5549L27.4302 28.8805L27.7558 27.935L26.8102 27.6094ZM12.9498 22.8369L13.2754 21.8914L12.3298 21.5658L12.0043 22.5113L12.9498 22.8369ZM10.6135 29.6221L9.66796 29.2965L9.34239 30.242L10.2879 30.5676L10.6135 29.6221ZM25.6504 34.7997L26.596 35.1253L26.9215 34.1798L25.976 33.8542L25.6504 34.7997ZM23.4196 41.2787L23.094 42.2242L24.0395 42.5497L24.3651 41.6042L23.4196 41.2787ZM1.3503 33.6796L12.7156 0.672396L10.8246 0.0212592L-0.540741 33.0285L1.3503 33.6796ZM11.4445 1.29235L34.4593 9.21697L35.1104 7.32594L12.0956 -0.598691L11.4445 1.29235ZM33.8393 7.94589L31.6085 14.4248L33.4995 15.076L35.7304 8.59702L33.8393 7.94589ZM32.8795 13.8049L17.8426 8.62724L17.1914 10.5183L32.2284 15.6959L32.8795 13.8049ZM16.5715 9.24719L14.2407 16.0162L16.1317 16.6674L18.4625 9.89833L16.5715 9.24719ZM14.8607 17.2873L28.7211 22.0599L29.3722 20.1688L15.5118 15.3963L14.8607 17.2873ZM28.1012 20.7888L25.8647 27.2839L27.7558 27.935L29.9922 21.4399L28.1012 20.7888ZM27.1358 26.6639L13.2754 21.8914L12.6242 23.7824L26.4847 28.5549L27.1358 26.6639ZM12.0043 22.5113L9.66796 29.2965L11.559 29.9476L13.8953 23.1625L12.0043 22.5113ZM10.2879 30.5676L25.3249 35.7452L25.976 33.8542L10.939 28.6765L10.2879 30.5676ZM24.7049 34.4741L22.474 40.9531L24.3651 41.6042L26.596 35.1253L24.7049 34.4741ZM23.7451 40.3331L0.730346 32.4085L0.0792094 34.2995L23.094 42.2242L23.7451 40.3331Z" fill="#222222" mask="url(#path-1-outside-1_1429_13780)"/>
</svg>
