<svg width="42" height="42" viewBox="0 0 42 42" fill="none" xmlns="http://www.w3.org/2000/svg">
<path d="M18.1463 12.6841C17.7431 14.6578 12.5012 16.6315 11.6947 11.1052C10.8883 5.57888 19.7592 3.6052 22.1786 9.52625C24.5979 15.4473 21.7753 22.1578 14.114 24.921" stroke="#24C57A" strokeWidth="1.2" strokeLinecap="round" strokeLinejoin="round"/>
<path d="M15.7246 19.3947H6.45042M6.45042 19.3947V41.1052H33.4665V19.3947M6.45042 19.3947L1.2085 24.5262M33.4665 19.3947H25.402M33.4665 19.3947L38.3052 24.5262M30.6439 0.842041C30.6439 2.42099 26.6117 6.36835 25.402 6.36835C26.6117 6.36835 30.6439 10.3157 30.6439 11.4999C30.6439 10.3157 34.273 6.36835 35.4826 6.36835C34.5149 6.36835 30.6439 2.42099 30.6439 0.842041Z" stroke="black" strokeWidth="1.2" strokeLinecap="round" strokeLinejoin="round"/>
<path d="M35.4854 13.9853C36.2595 13.9853 38.8402 11.6461 38.8402 10.7104C38.8402 11.6461 41.3176 13.9853 41.937 13.9853C41.1628 13.9853 38.8402 16.3245 38.8402 17.0262C38.8402 16.3245 36.2595 13.9853 35.4854 13.9853Z" fill="#ECBF2B"/>
<path d="M0 6.09051C0.774194 6.09051 3.35484 3.75133 3.35484 2.81566C3.35484 3.75133 5.83226 6.09051 6.45161 6.09051C5.67742 6.09051 3.35484 8.42969 3.35484 9.13145C3.35484 8.42969 0.774194 6.09051 0 6.09051Z" fill="black"/>
</svg>
