<svg width="43" height="45" viewBox="0 0 43 45" fill="none" xmlns="http://www.w3.org/2000/svg">
<mask id="path-1-outside-1_1429_13818" maskUnits="userSpaceOnUse" x="-1.17218" y="-1.40413" width="45.7542" height="47.3435" fill="black">
<rect fill="white" x="-1.17218" y="-1.40413" width="45.7542" height="47.3435"/>
<path d="M14.4056 44.3773L0.765579 12.2433L8.53234 8.94652L14.007 21.844L26.6692 16.4693L21.1945 3.57174L28.9456 0.28161L42.5857 32.4156L34.8346 35.7057L29.3532 22.7925L16.6911 28.1673L22.1724 41.0805L14.4056 44.3773Z"/>
</mask>
<path d="M14.4056 44.3773L13.4851 44.768L13.8759 45.6885L14.7964 45.2978L14.4056 44.3773ZM0.765579 12.2433L0.374848 11.3228L-0.545657 11.7135L-0.154926 12.634L0.765579 12.2433ZM8.53234 8.94652L9.45284 8.55579L9.06211 7.63528L8.14161 8.02601L8.53234 8.94652ZM14.007 21.844L13.0865 22.2348L13.4772 23.1553L14.3977 22.7646L14.007 21.844ZM26.6692 16.4693L27.0599 17.3898L27.9804 16.999L27.5897 16.0785L26.6692 16.4693ZM21.1945 3.57174L20.8038 2.65124L19.8833 3.04197L20.274 3.96248L21.1945 3.57174ZM28.9456 0.28161L29.8661 -0.109121L29.4754 -1.02963L28.5549 -0.638895L28.9456 0.28161ZM42.5857 32.4156L42.9764 33.3361L43.8969 32.9454L43.5062 32.0249L42.5857 32.4156ZM34.8346 35.7057L33.9141 36.0965L34.3048 37.017L35.2253 36.6262L34.8346 35.7057ZM29.3532 22.7925L30.2737 22.4018L29.883 21.4813L28.9625 21.872L29.3532 22.7925ZM16.6911 28.1673L16.3003 27.2468L15.3798 27.6375L15.7706 28.558L16.6911 28.1673ZM22.1724 41.0805L22.5631 42.001L23.4836 41.6103L23.0929 40.6898L22.1724 41.0805ZM15.3262 43.9866L1.68608 11.8526L-0.154926 12.634L13.4851 44.768L15.3262 43.9866ZM1.15631 13.1638L8.92307 9.86702L8.14161 8.02601L0.374848 11.3228L1.15631 13.1638ZM7.61183 9.33725L13.0865 22.2348L14.9275 21.4533L9.45284 8.55579L7.61183 9.33725ZM14.3977 22.7646L27.0599 17.3898L26.2785 15.5488L13.6163 20.9235L14.3977 22.7646ZM27.5897 16.0785L22.115 3.18101L20.274 3.96248L25.7487 16.86L27.5897 16.0785ZM21.5852 4.49225L29.3363 1.20212L28.5549 -0.638895L20.8038 2.65124L21.5852 4.49225ZM28.0251 0.672341L41.6651 32.8063L43.5062 32.0249L29.8661 -0.109121L28.0251 0.672341ZM42.1949 31.4951L34.4438 34.7852L35.2253 36.6262L42.9764 33.3361L42.1949 31.4951ZM35.7551 35.315L30.2737 22.4018L28.4327 23.1832L33.9141 36.0965L35.7551 35.315ZM28.9625 21.872L16.3003 27.2468L17.0818 29.0878L29.744 23.713L28.9625 21.872ZM15.7706 28.558L21.2519 41.4712L23.0929 40.6898L17.6116 27.7766L15.7706 28.558ZM21.7817 40.16L14.0149 43.4568L14.7964 45.2978L22.5631 42.001L21.7817 40.16Z" fill="#222222" mask="url(#path-1-outside-1_1429_13818)"/>
</svg>
