<svg width="25" height="37" viewBox="0 0 25 37" fill="none" xmlns="http://www.w3.org/2000/svg">
<mask id="path-1-outside-1_1429_19187" maskUnits="userSpaceOnUse" x="-1.47801" y="-0.961442" width="27.9008" height="38.31" fill="black">
<rect fill="white" x="-1.47801" y="-0.961442" width="27.9008" height="38.31"/>
<path d="M2.04588 36.264L0.218879 1.40277L8.64482 0.961183L10.1132 28.9796L24.616 28.2195L24.9746 35.0624L2.04588 36.264Z"/>
</mask>
<path d="M2.04588 36.264L1.04725 36.3164L1.09959 37.315L2.09822 37.2627L2.04588 36.264ZM0.218879 1.40277L0.166543 0.404138L-0.832087 0.456474L-0.779751 1.4551L0.218879 1.40277ZM8.64482 0.961183L9.64345 0.908847L9.59111 -0.0897823L8.59248 -0.0374463L8.64482 0.961183ZM10.1132 28.9796L9.11457 29.0319L9.1669 30.0305L10.1655 29.9782L10.1132 28.9796ZM24.616 28.2195L25.6147 28.1672L25.5623 27.1685L24.5637 27.2209L24.616 28.2195ZM24.9746 35.0624L25.027 36.061L26.0256 36.0087L25.9733 35.01L24.9746 35.0624ZM3.04451 36.2117L1.21751 1.35043L-0.779751 1.4551L1.04725 36.3164L3.04451 36.2117ZM0.271215 2.4014L8.69715 1.95981L8.59248 -0.0374463L0.166543 0.404138L0.271215 2.4014ZM7.64619 1.01352L9.11457 29.0319L11.1118 28.9272L9.64345 0.908847L7.64619 1.01352ZM10.1655 29.9782L24.6684 29.2181L24.5637 27.2209L10.0609 27.9809L10.1655 29.9782ZM23.6174 28.2718L23.976 35.1147L25.9733 35.01L25.6147 28.1672L23.6174 28.2718ZM24.9223 34.0637L1.99354 35.2654L2.09822 37.2627L25.027 36.061L24.9223 34.0637Z" fill="#222222" mask="url(#path-1-outside-1_1429_19187)"/>
</svg>
