<svg width="39" height="43" viewBox="0 0 39 43" fill="none" xmlns="http://www.w3.org/2000/svg">
<mask id="path-1-outside-1_1429_13822" maskUnits="userSpaceOnUse" x="-1.28252" y="-1.11174" width="42.1959" height="45.624" fill="black">
<rect fill="white" x="-1.28252" y="-1.11174" width="42.1959" height="45.624"/>
<path d="M30.7706 6.21079L38.8649 8.53178L32.6584 30.1766C31.9411 32.678 30.7209 34.6865 28.9977 36.2021C27.2777 37.7068 25.207 38.6616 22.7857 39.0667C20.3674 39.4609 17.7492 39.2539 14.931 38.4458C12.0799 37.6283 9.73348 36.4116 7.89158 34.7959C6.05281 33.1692 4.80823 31.2637 4.15785 29.0794C3.5106 26.8841 3.54562 24.5358 4.26291 22.0343L10.4694 0.389514L18.5801 2.7152L12.5756 23.6554C12.2436 24.8133 12.1988 25.9176 12.4413 26.9683C12.6947 28.0222 13.2066 28.9374 13.977 29.7139C14.7473 30.4904 15.7388 31.0525 16.9513 31.4002C18.1638 31.7479 19.2969 31.795 20.3508 31.5416C21.4156 31.2913 22.3347 30.7864 23.108 30.027C23.8814 29.2675 24.4341 28.3089 24.7661 27.151L30.7706 6.21079Z"/>
</mask>
<path d="M30.7706 6.21079L31.0463 5.24953L30.085 4.97389L29.8094 5.93515L30.7706 6.21079ZM38.8649 8.53178L39.8262 8.80742L40.1018 7.84616L39.1405 7.57052L38.8649 8.53178ZM28.9977 36.2021L29.6562 36.9548L29.6582 36.953L28.9977 36.2021ZM22.7857 39.0667L22.9466 40.0537L22.9507 40.053L22.7857 39.0667ZM7.89158 34.7959L7.22899 35.5449L7.23213 35.5477L7.89158 34.7959ZM4.15785 29.0794L3.19867 29.3622L3.19943 29.3648L4.15785 29.0794ZM10.4694 0.389514L10.7451 -0.571748L9.78382 -0.847386L9.50818 0.113876L10.4694 0.389514ZM18.5801 2.7152L19.5414 2.99084L19.817 2.02958L18.8557 1.75394L18.5801 2.7152ZM12.4413 26.9683L11.4669 27.1932L11.469 27.2021L12.4413 26.9683ZM13.977 29.7139L14.6869 29.0096L14.6869 29.0096L13.977 29.7139ZM20.3508 31.5416L20.122 30.5681L20.117 30.5693L20.3508 31.5416ZM30.495 7.17205L38.5893 9.49304L39.1405 7.57052L31.0463 5.24953L30.495 7.17205ZM37.9036 8.25614L31.6971 29.9009L33.6196 30.4522L39.8262 8.80742L37.9036 8.25614ZM31.6971 29.9009C31.0253 32.2438 29.8982 34.0784 28.3373 35.4512L29.6582 36.953C31.5436 35.2947 32.8569 33.1123 33.6196 30.4522L31.6971 29.9009ZM28.3393 35.4495C26.7693 36.8229 24.8732 37.7036 22.6207 38.0804L22.9507 40.053C25.5409 39.6197 27.7861 38.5907 29.6562 36.9548L28.3393 35.4495ZM22.6248 38.0797C20.378 38.446 17.9105 38.2599 15.2066 37.4845L14.6553 39.4071C17.5879 40.2479 20.3569 40.4758 22.9466 40.0537L22.6248 38.0797ZM15.2066 37.4845C12.4681 36.6993 10.2611 35.5443 8.55103 34.0441L7.23213 35.5477C9.20582 37.279 11.6918 38.5573 14.6553 39.4071L15.2066 37.4845ZM8.55417 34.0469C6.84416 32.5342 5.70918 30.7854 5.11627 28.794L3.19943 29.3648C3.90729 31.7421 5.26146 33.8043 7.22899 35.5449L8.55417 34.0469ZM5.11703 28.7966C4.53058 26.8075 4.55187 24.6545 5.22417 22.3099L3.30164 21.7587C2.53937 24.417 2.49063 26.9607 3.19868 29.3622L5.11703 28.7966ZM5.22417 22.3099L11.4307 0.665151L9.50818 0.113876L3.30164 21.7587L5.22417 22.3099ZM10.1938 1.35078L18.3045 3.67647L18.8557 1.75394L10.7451 -0.571748L10.1938 1.35078ZM17.6188 2.43957L11.6143 23.3798L13.5368 23.9311L19.5414 2.99084L17.6188 2.43957ZM11.6143 23.3798C11.2411 24.6813 11.182 25.9586 11.4669 27.1932L13.4157 26.7435C13.2156 25.8766 13.246 24.9454 13.5368 23.9311L11.6143 23.3798ZM11.469 27.2021C11.7656 28.4356 12.3691 29.513 13.2671 30.4182L14.6869 29.0096C14.0441 28.3617 13.6238 27.6088 13.4136 26.7345L11.469 27.2021ZM13.2671 30.4182C14.1752 31.3336 15.3242 31.9739 16.6756 32.3614L17.2269 30.4389C16.1533 30.1311 15.3195 29.6472 14.6869 29.0096L13.2671 30.4182ZM16.6756 32.3614C18.0267 32.7489 19.3371 32.8138 20.5846 32.5138L20.117 30.5693C19.2568 30.7761 18.3008 30.7469 17.2269 30.4389L16.6756 32.3614ZM20.5796 32.515C21.8208 32.2233 22.9035 31.6293 23.8087 30.7405L22.4074 29.3135C21.7658 29.9435 21.0104 30.3593 20.122 30.5681L20.5796 32.515ZM23.8087 30.7405C24.7186 29.847 25.3532 28.7316 25.7274 27.4266L23.8049 26.8754C23.515 27.8861 23.0442 28.6881 22.4074 29.3135L23.8087 30.7405ZM25.7274 27.4266L31.7319 6.48642L29.8094 5.93515L23.8049 26.8754L25.7274 27.4266Z" fill="#222222" mask="url(#path-1-outside-1_1429_13822)"/>
</svg>
