<svg width="45" height="46" viewBox="0 0 45 46" fill="none" xmlns="http://www.w3.org/2000/svg">
<mask id="path-1-outside-1_1429_13820" maskUnits="userSpaceOnUse" x="-1.51949" y="-0.945319" width="48.3631" height="47.7654" fill="black">
<rect fill="white" x="-1.51949" y="-0.945319" width="48.3631" height="47.7654"/>
<path d="M0.642241 12.4256L9.49991 9.20163L21.4317 20.4043L21.72 20.2993L23.6594 4.04801L32.517 0.824081L28.4719 27.0385L32.4596 37.9945L24.579 40.8628L20.5913 29.9068L0.642241 12.4256Z"/>
</mask>
<path d="M0.642241 12.4256L0.300221 11.4859L-1.28783 12.0639L-0.0168151 13.1777L0.642241 12.4256ZM9.49991 9.20163L10.1844 8.4726L9.73594 8.05155L9.15789 8.26194L9.49991 9.20163ZM21.4317 20.4043L20.7472 21.1333L21.1957 21.5544L21.7737 21.344L21.4317 20.4043ZM21.72 20.2993L22.062 21.239L22.6401 21.0286L22.713 20.4178L21.72 20.2993ZM23.6594 4.04801L23.3174 3.10832L22.7393 3.31871L22.6664 3.92952L23.6594 4.04801ZM32.517 0.824081L33.5053 0.976586L33.7631 -0.693614L32.175 -0.115611L32.517 0.824081ZM28.4719 27.0385L27.4836 26.886L27.4445 27.1395L27.5322 27.3805L28.4719 27.0385ZM32.4596 37.9945L32.8016 38.9342L33.7413 38.5922L33.3993 37.6525L32.4596 37.9945ZM24.579 40.8628L23.6393 41.2048L23.9813 42.1445L24.921 41.8025L24.579 40.8628ZM20.5913 29.9068L21.531 29.5648L21.4433 29.3238L21.2504 29.1547L20.5913 29.9068ZM0.984261 13.3653L9.84193 10.1413L9.15789 8.26194L0.300221 11.4859L0.984261 13.3653ZM8.81543 9.93066L20.7472 21.1333L22.1162 19.6752L10.1844 8.4726L8.81543 9.93066ZM21.7737 21.344L22.062 21.239L21.378 19.3596L21.0897 19.4646L21.7737 21.344ZM22.713 20.4178L24.6523 4.16651L22.6664 3.92952L20.7271 20.1808L22.713 20.4178ZM24.0014 4.9877L32.8591 1.76377L32.175 -0.115611L23.3174 3.10832L24.0014 4.9877ZM31.5287 0.671577L27.4836 26.886L29.4602 27.191L33.5053 0.976586L31.5287 0.671577ZM27.5322 27.3805L31.5199 38.3365L33.3993 37.6525L29.4116 26.6965L27.5322 27.3805ZM32.1175 37.0548L24.2369 39.9231L24.921 41.8025L32.8016 38.9342L32.1175 37.0548ZM25.5186 40.5208L21.531 29.5648L19.6516 30.2488L23.6393 41.2048L25.5186 40.5208ZM21.2504 29.1547L1.3013 11.6735L-0.0168151 13.1777L19.9323 30.6589L21.2504 29.1547Z" fill="#222222" mask="url(#path-1-outside-1_1429_13820)"/>
</svg>
